<?xml version="1.0" standalone="no"?>
<!DOCTYPE svg PUBLIC "-//W3C//DTD SVG 20010904//EN"
 "http://www.w3.org/TR/2001/REC-SVG-20010904/DTD/svg10.dtd">
<svg version="1.0" xmlns="http://www.w3.org/2000/svg"
 width="512.000000pt" height="512.000000pt" viewBox="0 0 512.000000 512.000000"
 preserveAspectRatio="xMidYMid meet">
<metadata>
Created by potrace 1.16, written by Peter Selinger 2001-2019
</metadata>
<g transform="translate(0.000000,512.000000) scale(0.100000,-0.100000)"
fill="#000000" stroke="none">
<path d="M2305 5113 c-532 -63 -965 -241 -1360 -558 -119 -96 -342 -326 -432
-446 -210 -280 -361 -598 -443 -931 -57 -233 -65 -308 -65 -618 0 -310 8 -385
65 -618 85 -345 255 -693 478 -976 30 -39 123 -139 206 -222 306 -305 630
-503 1036 -632 243 -77 482 -112 770 -112 419 0 773 81 1135 260 271 134 487
292 705 516 396 408 637 911 706 1474 19 158 16 593 -5 644 -24 58 -80 73
-125 34 -21 -19 -28 -40 -41 -123 -86 -546 -386 -1012 -849 -1317 -48 -32 -92
-58 -97 -58 -5 0 -9 61 -9 135 0 133 -1 137 -26 162 -20 20 -31 24 -57 19 -18
-4 -41 -15 -52 -26 -18 -19 -20 -36 -23 -203 l-3 -183 -67 -26 c-166 -64 -353
-110 -505 -124 l-77 -7 0 537 0 536 324 0 324 0 4 -130 c3 -144 11 -163 75
-176 26 -5 37 -1 57 19 25 25 26 30 26 157 l0 130 34 0 c38 0 76 36 76 72 0
24 -19 60 -36 71 -9 5 -6 21 16 65 111 229 42 503 -173 683 -71 59 -175 122
-254 155 l-58 23 -5 120 c-6 140 -18 163 -86 163 -64 0 -74 -23 -74 -162 l0
-117 -71 -28 c-159 -62 -347 -221 -416 -350 -81 -153 -84 -344 -9 -493 l24
-47 -25 -29 c-19 -23 -24 -36 -19 -60 8 -39 39 -66 77 -66 l29 0 0 -535 0
-535 -49 0 c-26 0 -69 3 -95 6 l-46 7 0 1013 0 1014 26 0 c59 0 97 55 74 110
-7 17 -19 34 -26 38 -10 6 -8 18 12 58 37 75 54 149 54 239 0 88 -10 133 -47
216 -35 80 -91 102 -138 54 -31 -31 -31 -53 0 -132 27 -66 35 -164 19 -229 -9
-39 -40 -100 -77 -151 l-30 -43 -352 0 -352 0 -30 43 c-97 135 -113 271 -47
405 55 113 202 236 354 298 78 31 98 29 215 -31 100 -51 126 -55 160 -20 27
26 32 63 14 96 -10 20 -199 119 -226 119 -10 0 -13 27 -13 124 0 123 0 125
-26 145 -35 28 -67 26 -101 -3 -27 -24 -28 -27 -31 -145 -3 -113 -5 -121 -25
-127 -36 -11 -178 -84 -223 -115 -123 -84 -226 -213 -270 -337 -44 -124 -29
-303 35 -421 18 -33 18 -34 -6 -57 -48 -48 -12 -134 57 -134 l30 0 0 -811 0
-811 -67 60 c-178 158 -338 363 -438 562 -38 76 -52 90 -92 90 -39 0 -83 -37
-83 -70 0 -44 121 -257 227 -398 75 -99 247 -277 343 -355 298 -240 654 -394
1035 -449 131 -18 436 -16 570 5 673 104 1238 511 1547 1115 58 114 60 116 53
67 -30 -230 -108 -487 -215 -710 -239 -495 -653 -905 -1149 -1137 -319 -150
-651 -222 -1021 -222 -227 0 -362 15 -565 64 -788 188 -1436 772 -1703 1533
-187 531 -187 1083 0 1614 259 739 886 1319 1641 1518 72 19 137 35 142 35 6
0 -12 -13 -40 -28 -305 -169 -589 -449 -771 -759 -149 -253 -243 -542 -275
-843 -27 -261 21 -708 84 -778 14 -15 32 -22 57 -22 69 0 86 52 55 169 -65
253 -61 616 10 897 173 683 717 1223 1400 1389 118 29 145 46 145 95 0 15 -9
39 -21 54 l-20 26 -182 -1 c-100 -1 -195 -4 -212 -6z m355 -2892 l0 -1009 -62
14 c-161 38 -350 113 -505 202 l-83 47 0 872 0 872 123 4 c67 1 213 4 325 5
l202 2 0 -1009z m976 899 c313 -153 418 -433 249 -662 l-35 -48 -355 0 -355 0
-40 61 c-56 87 -73 145 -69 237 9 178 145 336 379 439 48 21 84 31 100 28 14
-3 70 -28 126 -55z"/>
<path d="M2266 3035 c-47 -16 -91 -57 -117 -107 -17 -33 -19 -60 -19 -223 l0
-187 29 -29 29 -29 147 0 147 0 29 29 29 29 0 184 c0 207 -8 238 -73 295 -58
51 -128 64 -201 38z m112 -163 c8 -11 12 -55 12 -139 l0 -123 -55 0 -55 0 0
123 c0 124 6 149 40 159 20 7 42 -1 58 -20z"/>
<path d="M2240 2248 c-26 -13 -57 -41 -75 -66 l-30 -44 -3 -186 c-2 -102 -1
-196 3 -209 3 -13 20 -32 38 -43 27 -17 50 -20 160 -20 207 0 210 4 205 266
-3 158 -5 184 -24 219 -49 94 -177 133 -274 83z m134 -150 c12 -17 16 -50 16
-145 l0 -123 -32 0 c-79 0 -78 -1 -78 133 0 98 3 124 17 139 22 25 59 23 77
-4z"/>
<path d="M3897 4929 c-10 -6 -33 -43 -51 -82 -40 -86 -60 -106 -148 -146 -73
-32 -88 -51 -88 -108 0 -54 20 -77 87 -101 76 -28 109 -60 148 -146 34 -75 59
-96 113 -96 43 0 70 26 103 98 39 87 51 99 135 138 40 18 79 43 88 55 38 55 4
132 -70 158 -77 26 -111 57 -145 128 -44 94 -63 113 -113 113 -23 0 -49 -5
-59 -11z m108 -384 l-50 -50 -51 50 -51 50 50 51 49 51 52 -51 51 -50 -50 -51z"/>
<path d="M3173 4357 c-99 -99 -103 -105 -103 -146 0 -41 5 -49 88 -134 93 -95
133 -120 180 -111 38 8 217 187 226 226 10 45 -16 88 -111 181 -85 82 -93 87
-134 87 -41 0 -47 -4 -146 -103z"/>
<path d="M4033 4038 c-21 -10 -34 -32 -66 -108 -21 -52 -71 -97 -129 -117 -69
-25 -98 -56 -98 -105 0 -58 15 -76 88 -109 88 -40 108 -60 148 -146 36 -79 53
-93 112 -93 46 0 87 34 97 80 12 56 60 116 111 139 97 44 112 53 123 77 16 35
14 76 -5 103 -9 12 -48 37 -88 55 -84 39 -95 50 -134 137 -17 37 -40 74 -53
83 -26 18 -73 20 -106 4z m102 -383 l-50 -50 -50 49 -50 49 49 51 50 51 50
-50 51 -50 -50 -50z"/>
<path d="M3415 2071 c-50 -22 -101 -79 -115 -128 -7 -24 -10 -104 -8 -216 l3
-179 28 -24 c27 -23 34 -24 173 -24 l146 0 29 29 29 29 0 188 c0 169 -2 192
-21 230 -46 96 -167 140 -264 95z m113 -147 c21 -14 22 -22 22 -145 l0 -129
-55 0 -55 0 0 125 c0 112 2 127 20 145 24 24 38 25 68 4z"/>
</g>
</svg>
